<svg xmlns="http://www.w3.org/2000/svg" xmlns:xlink="http://www.w3.org/1999/xlink" viewBox="0 0 569.09 336.72"><defs><style>.cls-1{fill:url(#New_Gradient_Swatch);}.cls-2{fill:url(#New_Gradient_Swatch-2);}.cls-3,.cls-6{fill:#fff;}.cls-3{opacity:0.3;}.cls-4{fill:#24448d;}.cls-5{fill:#d2d3d3;}.cls-7{fill:#231f20;}</style><linearGradient id="New_Gradient_Swatch" x1="440.1" y1="-115.62" x2="440.1" y2="69.66" gradientTransform="translate(37.52 -81.1) rotate(11.56)" gradientUnits="userSpaceOnUse"><stop offset="0" stop-color="#12afb5"/><stop offset="0.82" stop-color="#86ccd3"/></linearGradient><linearGradient id="New_Gradient_Swatch-2" x1="440.99" y1="79.63" x2="440.99" y2="214.85" xlink:href="#New_Gradient_Swatch"/></defs><title>Asset 2</title><g id="Layer_2" data-name="Layer 2"><g id="Layer_1-2" data-name="Layer 1"><path class="cls-1" d="M383.38,65.42a4,4,0,0,1,4-1.39,4,4,0,0,1,3,3l7.25,31.75,34.87,7.13a4,4,0,0,1,2.89,2.4l2.34,5.76,4.22-4.35a4,4,0,0,1,3.66-1.13l6.72,1.37,24.16-40.07a4,4,0,0,1,7.4,2.08l-.28,65.31,24.42-49a4,4,0,0,1,7.53,1.36l4.65,43.35,10.47-11a4,4,0,0,1,3.68-1.16l29,5.94a91.47,91.47,0,0,0,2-57.65c-7.27-24.3-24.12-42-44-46.33l-.47-.09c-14.22-2.91-35.85-.48-60.66,25.6C447.55,14.19,428.32,3.62,414.06.84,394.13-3,371.67,6.69,355.44,26.18c-11.77,14.15-21.55,35.58-20.83,59.71l27.8,5.68Z"/><path class="cls-2" d="M520,144.66a4,4,0,0,1-6.85-2.33L509.09,104l-26,52.15a4,4,0,0,1-4.37,2.13l-.12,0a4,4,0,0,1-3.07-3.89l.3-68-18.15,30.11a4,4,0,0,1-4.22,1.85l-7.34-1.5L439.2,124a4,4,0,0,1-3.62,1.13,3.91,3.91,0,0,1-2.93-2.41l-3.84-9.44-35.3-7.22a4,4,0,0,1-3.09-3l-6-26.21L367.1,98.46a4,4,0,0,1-3.9,1.41l-27.93-5.71a86.28,86.28,0,0,0,5.27,20.44c12.82,32.65,40.35,65,84.19,98.75l1.55,1.19,1.89-.49c53.58-13.88,91.59-32.77,116.19-57.77a85.37,85.37,0,0,0,15.76-22.05l-25.2-5.15Z"/><path class="cls-3" d="M424.73,213.35l1.55,1.19.74-.2c-1.33-1.13-2.64-2.3-3.9-3.52-12.41-12-21.44-26.93-29.7-42.06-9.05-16.58-17.38-33.72-22.31-52-.76-2.8-1.44-5.65-2-8.52-.69-3.36-1.25-6.77-1.67-10.19l-.31.37a4,4,0,0,1-3.9,1.41l-27.93-5.71a86.28,86.28,0,0,0,5.27,20.44C353.36,147.25,380.89,179.55,424.73,213.35Z"/><path class="cls-3" d="M334.61,85.89l27.8,5.68,4.14-5.17a84.65,84.65,0,0,1,3.76-27.48c7.83-24.36,28.53-44.66,51.49-55.22l.79-.35a48.48,48.48,0,0,0-8-2.4c-20.18-3.87-42.86,5.92-59.2,25.55a92.69,92.69,0,0,0-18.13,35.56l0,.15c-.21.85-.42,1.7-.61,2.56A85.4,85.4,0,0,0,334.61,85.89Z"/><path class="cls-4" d="M22,284.32l-.57,2.14a2.65,2.65,0,0,1-1.18,1.48,34,34,0,0,1-5.63,1l-3.24.29-1,.05L9,289.31H7.68l-3.39.12,0-.66,0-.82v-.5a1.88,1.88,0,0,1,.1-.75l.2-.73a.86.86,0,0,1,.41-.55l.82.2,1.06.12H7.9a41.21,41.21,0,0,0,6-.44l1.23-.17L16,285l.83-.18.81-.13.9-.15,1.11-.2.75-.19a18,18,0,0,0-.21-2.89l-.1-1-.17-1-.55-2.7-.46-2.39-.44-2.53L18,268.36l-.16-1.3a4.68,4.68,0,0,1-.68-1,5.21,5.21,0,0,1-.29-1.68,3.87,3.87,0,0,1,.6-1.83c.41-.69.73-1,1-1s.18.12.18.34l0,.38,0,.29a2.39,2.39,0,0,0,.31.64l1.39,1.07.09.81v.22l0,.4a2.76,2.76,0,0,1-.17.77,5,5,0,0,1-.57,1.34l1.07,6.65.62,3.3.35,1.57.2,1.18.14,1.07v.73Zm-8.6-10.76c.78.13,1.16.49,1.16,1a8.74,8.74,0,0,1-.63,2.08,13.41,13.41,0,0,1-1.48,2.17,4.61,4.61,0,0,1-1.72.78,12.92,12.92,0,0,1-1.78.25L6.47,280l0-.34,0-.31a.42.42,0,0,1,.27-.18c1.74-.58,2.76-.92,3-1.06l2-.89a5.88,5.88,0,0,1-1.7-.72,1.23,1.23,0,0,1-.28-1v-.67a6.92,6.92,0,0,1,1.46-3.42l1.44-2,.43.21a1.29,1.29,0,0,1,.06.53,2.09,2.09,0,0,1-.33,1l-1.08,1.95Zm28.86,14.91a9.52,9.52,0,0,1-1.06-.07l-.49-.15a.86.86,0,0,1-.43-.19c-1.22-.61-2.22-2.22-3-4.8a21.4,21.4,0,0,1-1-6.43,9.87,9.87,0,0,0-.11-1.46,4.93,4.93,0,0,0-.17-1l-.24-1.15a16,16,0,0,0-.55-2.12l-.06,6.3a18.25,18.25,0,0,1-.79,5.39,8.07,8.07,0,0,1-.76,1.81,9.09,9.09,0,0,1-1,1.54,10.1,10.1,0,0,1-2,1.87,25,25,0,0,1-3.94,2.13,19.35,19.35,0,0,1-3.93,1.27l-1.09.13h-.18l-.06,0,.21-.22.6-.44,1.93-1.21A40.34,40.34,0,0,0,28,286.7a14.06,14.06,0,0,0,2.42-2.37,13.88,13.88,0,0,0-.78-2.82A16.77,16.77,0,0,0,28.34,279l-.54-.81-.66-.88-2.23-2.27a.92.92,0,0,1-.3.36l-.33.1a.72.72,0,0,1-.33-.06l-.31-.22-.38-.17-.5-.29-.73-.49-.34-.67-.39-.81-.1-.75-.06-.91a3.43,3.43,0,0,1,0-.81l.12-.56a.52.52,0,0,1,.55-.42l.45.19a19,19,0,0,1,4.61,3.61,13.23,13.23,0,0,1,1.51,2.06,23.64,23.64,0,0,1,1.44,2.86l.71,2.11.21,1.16.33,2.13a12.71,12.71,0,0,0,2.14-4.15,15.61,15.61,0,0,0,.57-3l.21-4.74v-1.33a13.75,13.75,0,0,1,.15-2.68,19.68,19.68,0,0,1,.49-2l.45-.22c.29,0,.55.37.78,1.14l.37,1.63.46,2.57,1.11,7.47a12.77,12.77,0,0,0,.62,2.7,9.2,9.2,0,0,0,1.42,2.88,3,3,0,0,0,2.38,1.35v3.37ZM52,280a8.06,8.06,0,0,1,.5,2.68,3.69,3.69,0,0,1-.13,1,3.16,3.16,0,0,1-.45,1,2.58,2.58,0,0,1-1.25,1.37l-1-.09a7.07,7.07,0,0,1-3.63-1.34,9.36,9.36,0,0,0-1.34,2.14,3.53,3.53,0,0,1-2.47,1.67v-3.37A4,4,0,0,0,45,283.55a9.83,9.83,0,0,1,1.61-1.75H47a6.41,6.41,0,0,1,1.27-2.39,2.25,2.25,0,0,1,1.68-1A2.21,2.21,0,0,1,52,280Zm-1.56,3-.14-.75a2.31,2.31,0,0,0-.14-.51,1,1,0,0,0-1-.63H49a1.5,1.5,0,0,0-.77.41l-.34.47a5.37,5.37,0,0,0,1.16.66Zm17.61,5.49a4.93,4.93,0,0,1-3.56-1.25,8.11,8.11,0,0,1-1.76-3.32c-.24-1-.51-2.58-.84-4.88l-.4-3a18.67,18.67,0,0,1-.12-1.89v-1.91l-.17-3.1,0-2.22a9.61,9.61,0,0,1,.08-1.53,10.89,10.89,0,0,1,.23-2.11,11.26,11.26,0,0,1,.56-1.61,3,3,0,0,1,2.09-2l.09.36.06.41.07.85v.67l0,.49a3.76,3.76,0,0,0-1.13,1.24,10,10,0,0,0-.74,4.2V270l.15,3.73v.91l.08,1.23v.57l.21,1.18.25,1.76A8.38,8.38,0,0,0,65,283.62a4,4,0,0,0,3.09,1.48v3.37Zm9.12,0a3.35,3.35,0,0,1-1.36-.33,5.59,5.59,0,0,1-2-1.08,5.14,5.14,0,0,1-.75-1.11l-.42-.91a15.57,15.57,0,0,1-2,2.57,4.4,4.4,0,0,1-2.65.86V285.1l.67,0h.37l.28-.08.88-.21.51-.24c.53-.2,1.15-1,1.9-2.37.34-.58.66-.87.89-.87a.54.54,0,0,1,.33.11l0,.52,0,.77c0,.31.48.78,1.31,1.42a3.76,3.76,0,0,0,2.07.95ZM72,297.86a3.36,3.36,0,0,1-.28,1.35c-.25.69-.48,1-.69,1a1.14,1.14,0,0,1-.54-.15l-.9-.5a2.5,2.5,0,0,1-1.06-1c0-.12.12-.55.49-1.27a6.85,6.85,0,0,1,.7-1.25l.51.25.59.45.46.38Zm2.81-2.12a2.43,2.43,0,0,1,.75.91,3,3,0,0,1-.08.56,3,3,0,0,1-.27.71,2.07,2.07,0,0,1-1,1.25,3.63,3.63,0,0,1-1.18-.71A5.05,5.05,0,0,1,72,297.32l.23-.6.42-.84a2.89,2.89,0,0,1,.78-1.1,4.08,4.08,0,0,1,1.43,1Zm25.26-7.27-.6-.11a4.71,4.71,0,0,1-1.06-.3,2.41,2.41,0,0,1-1.1-.83l-1.23-2.11A12.57,12.57,0,0,1,95,287.27a3.13,3.13,0,0,1-2.47.93,4.2,4.2,0,0,1-1.55-.44,5.61,5.61,0,0,1-1.19-.82,15.89,15.89,0,0,1-2,1.18,7.57,7.57,0,0,1-2.14.24,6.9,6.9,0,0,1-3-.46,1.41,1.41,0,0,1-.9-1.28A6.46,6.46,0,0,1,79,288.2l-1,.16-.8.07V285.1a6.53,6.53,0,0,0,2-.27,11.33,11.33,0,0,0,2.1-.87,7.46,7.46,0,0,0,1.6-1.21,6,6,0,0,1,.78-.42c.22,0,.34.06.34.31l-.19.67-.44.86a3,3,0,0,0,.85.5l.8.14.83.06a11.92,11.92,0,0,0,2.75-.2,2.58,2.58,0,0,0,1.71-1.42,1.13,1.13,0,0,1,.25-.38,5.11,5.11,0,0,1,.82-.6l.42-.1c.18,0,.24.08.24.22l-.33,1.08a2.34,2.34,0,0,0-.13.66l.64.33a2.67,2.67,0,0,0,3-.94,6.69,6.69,0,0,1,1.53-2.33L97,281c.09,0,.14.12.14.34a6.11,6.11,0,0,1-.36,1.84l.51.6.74.59a7,7,0,0,0,2.09.69Zm9.14,0a3.21,3.21,0,0,1-1.36-.33A5.59,5.59,0,0,1,105.9,287a5.66,5.66,0,0,1-.78-1.11l-.4-.91a14.38,14.38,0,0,1-2,2.57,4.3,4.3,0,0,1-2.63.86V285.1l.67,0h.36l.27-.08.89-.21.52-.24c.51-.2,1.15-1,1.9-2.37.34-.58.65-.87.91-.87a.58.58,0,0,1,.31.11l0,.52,0,.77c0,.31.47.78,1.31,1.42a3.76,3.76,0,0,0,2.07.95v3.36ZM104,297.86a3.42,3.42,0,0,1-.31,1.35c-.25.69-.46,1-.68,1a1.2,1.2,0,0,1-.54-.15l-.88-.5a2.65,2.65,0,0,1-1.08-1,3.69,3.69,0,0,1,.48-1.27,7,7,0,0,1,.72-1.25l.5.25.59.45.47.38Zm2.8-2.12a2.23,2.23,0,0,1,.74.91,2.8,2.8,0,0,1-.07.56,5.33,5.33,0,0,1-.27.71,2.16,2.16,0,0,1-1,1.25,3.43,3.43,0,0,1-1.17-.71,4.73,4.73,0,0,1-1.13-1.14l.25-.6.41-.84a3.33,3.33,0,0,1,.76-1.1c.22,0,.68.32,1.45,1Zm9.67-7.27a4.11,4.11,0,0,1-2.47-1.3,12.22,12.22,0,0,1-1.91-3.86,6.69,6.69,0,0,1-1,3.39c-.66,1.16-1.3,1.73-1.93,1.73V285.1a2,2,0,0,0,1.37-.42,1.68,1.68,0,0,0,.5-1.35,23.22,23.22,0,0,0-.4-3.62l-.74-5.48-.54-4.24-.14-1.86,0-2.18a7.28,7.28,0,0,1,.33-2.36c.23-.69.44-1,.65-1s.15.09.19.28l.09.89,0,1.66.22,1.91.67,4.55c.22,1.46.51,3.06.89,4.8a39,39,0,0,0,1.21,4.46,8.56,8.56,0,0,0,.68,1.72A7,7,0,0,0,115,284a3.34,3.34,0,0,0,1.53,1.06v3.37Zm9.8-8.44a7.85,7.85,0,0,1,.51,2.68,3.83,3.83,0,0,1-.58,2,2.64,2.64,0,0,1-1.24,1.37l-1-.09a7,7,0,0,1-3.62-1.34,10.68,10.68,0,0,0-1.34,2.14,3.51,3.51,0,0,1-2.47,1.67v-3.37a4,4,0,0,0,2.8-1.53,9.83,9.83,0,0,1,1.6-1.75h.39a6.11,6.11,0,0,1,1.25-2.39,2.29,2.29,0,0,1,1.69-1,2.22,2.22,0,0,1,2.06,1.6Zm-1.55,3-.14-.75a1.76,1.76,0,0,0-.15-.51,1,1,0,0,0-1-.63h-.23a1.42,1.42,0,0,0-.77.41l-.36.47a5.94,5.94,0,0,0,1.17.66Zm23.69,5.45a3.07,3.07,0,0,1-1.68-.6,4,4,0,0,1-1.1-1.31l.16,3.7.07,2.73,0,.34a6.11,6.11,0,0,1-1.85,4.17,7.87,7.87,0,0,1-6.09,2.48,6,6,0,0,1-4.51-1.62,6.19,6.19,0,0,1-1.55-4.49,16.33,16.33,0,0,1,1-3.83c.65-1.94,1.17-2.89,1.55-2.89l.08,0,.13.13.1.32-.13.38-.34.92-.5,1.42a11.08,11.08,0,0,0-.31,1.82,4.38,4.38,0,0,0,1.28,3.19,4.71,4.71,0,0,0,3.24,1.05,8.86,8.86,0,0,0,3.86-.85,7.17,7.17,0,0,0,2.9-2.57,76.64,76.64,0,0,0-.48-8c-.11-1.37-.31-2.83-.55-4.38l-.58-3.88c0-.3-.05-.56-.08-.77a5.37,5.37,0,0,0-.16-.88l-.33-1.83-.47-2.92-.14-1.31-.08-1.23a2.79,2.79,0,0,1,.06-.7l.15-.77.2-1.24c0-.13,0-.18.13-.18l.13.12.22.24.37.86c.16.53.33,1.41.55,2.59L144,271l.31,2.23a43.86,43.86,0,0,0,1.32,7.69c.66,2.5,1.61,3.89,2.8,4.18v3.36Zm49.49,0a12.71,12.71,0,0,1-3.06-.26,2.08,2.08,0,0,1-1.79-1.85v-.64a1.43,1.43,0,0,1,.15-.45l.27-.78h-1l-.34.1-1.5.16L182.32,286l-6.95.95-7,.76a11.5,11.5,0,0,0-1.5.08l-1.36.21c-.95,0-1.78,0-2.49.1l-2.19.25h-1.17l-2.61.1-3.07.09h-2.85l-2.72-.05v-3.39l4.8,0,3.92-.06h3.52c2.75,0,5.46-.13,8.2-.4l1.16,0,1.22-.13,4.85-.77,8.13-1.12,5.52-.7c2.3-.27,3.67-.47,4.11-.57,0-.65-.48-1.2-1.41-1.65l-.83-.36-.87-.31a5.23,5.23,0,0,0-1.51-.23l-5.24.68-3.93.46-3.62.4-3.37.34q-7.05.67-11.57.67l-1.39.05h-1.49l-3-.05-1.29-.07h-.23l-.34,0-.84-.16a4.26,4.26,0,0,1-2-.77,1.76,1.76,0,0,1-.76-1.43,6.85,6.85,0,0,1,1.43-2.87l.74-1.05.92-1.13a23.93,23.93,0,0,1,2-2.08c2.31-1.61,4.38-2.92,6.18-4,1.37-.77,2.61-1.38,3.72-1.88l2.25-.84a2,2,0,0,1,.53-.13l.1.06.11.15-.05.28-.36.72-.59.76a5.14,5.14,0,0,0-.51.66L164,268.76l-1.58.81-1.75,1-3.31,2-1.42.92-1.39,1-.45.33-.64.57-1.19,1a1.47,1.47,0,0,0,.17.55c.31.33,1.88.68,4.68,1.05h11.54l1.39,0,1.31-.06,3.83-.24h.67l.27,0,1.31-.18,3.59-.57,7.21-.95a14,14,0,0,1,2.14-.2,7.25,7.25,0,0,1,2,.24l1.14.37a7.57,7.57,0,0,1,2.48,1.37A2.86,2.86,0,0,1,197,280v.42l-.12.49a17.44,17.44,0,0,1-.68,1.66c-.44.86-.88,1.33-1.35,1.46l-.46.13c0,.46.37.74,1.13.87l.83.08h1.29l.25-.07v3.38Zm9.13,0a3.32,3.32,0,0,1-1.37-.33,5.48,5.48,0,0,1-1.93-1.08,5.16,5.16,0,0,1-.79-1.11l-.39-.91a14.88,14.88,0,0,1-2,2.57,4.37,4.37,0,0,1-2.64.86V285.1l.66,0H199l.28-.08.87-.21.52-.24c.51-.2,1.15-1,1.89-2.37.35-.58.65-.87.91-.87a.61.61,0,0,1,.33.11l-.05.52,0,.77c0,.31.46.78,1.32,1.42a3.68,3.68,0,0,0,2.06.95v3.36Zm-5.19,9.43a3.85,3.85,0,0,1-.31,1.35c-.24.69-.47,1-.69,1a1.13,1.13,0,0,1-.52-.15l-.89-.5a2.37,2.37,0,0,1-1.07-1c-.06-.12.11-.55.49-1.27a7.28,7.28,0,0,1,.71-1.25l.49.25.58.45.48.38Zm2.8-2.12a2.43,2.43,0,0,1,.75.91,3.14,3.14,0,0,1-.09.56,3.44,3.44,0,0,1-.26.71,2.12,2.12,0,0,1-1,1.25,3.52,3.52,0,0,1-1.16-.71,5.1,5.1,0,0,1-1.15-1.14l.25-.6.43-.84a3.39,3.39,0,0,1,.74-1.1c.22,0,.69.32,1.46,1Zm10.67-7.27a6,6,0,0,1-2.09-.76l-1.19-.55-.78-.19-.39,0-1.61.84a4.31,4.31,0,0,1-2.11.61V285a12.39,12.39,0,0,0,2-.54l1.68-.83h.37a5.54,5.54,0,0,1,2.18.71l1.19.54a2.53,2.53,0,0,1,.38.09l.36.07v3.39Zm-3.06-14.85-.4,1.26a2.68,2.68,0,0,1-.54.94.39.39,0,0,1-.26.06,3.67,3.67,0,0,1-1.39-.34c-.93-.31-1.38-.67-1.38-1.05l.11-.33.7-1.45c.25-.59.52-.88.78-.88l.3,0,1.48.69c.42.25.64.51.64.82Zm52.56,14.81a12.71,12.71,0,0,1-3.06-.26,2.06,2.06,0,0,1-1.78-1.85v-.64a1.52,1.52,0,0,1,.13-.45l.28-.78h-.93l-.36.1-1.48.16-8.4,1.25-6.95.95-7,.76a11.61,11.61,0,0,0-1.5.08l-1.34.21c-1,0-1.79,0-2.5.1l-2.19.25h-1.19l-2.6.1-3.06.09h-2.85l-2.73-.05v-3.39l4.81,0,3.93-.06h3.52c2.72,0,5.44-.13,8.19-.4l1.17,0,1.21-.13,4.85-.77,8.13-1.12,5.52-.7c2.29-.27,3.67-.47,4.11-.57,0-.65-.47-1.2-1.42-1.65l-.83-.36-.87-.31a5.17,5.17,0,0,0-1.5-.23l-5.24.68-3.92.46-3.63.4-3.37.34q-7,.67-11.57.67l-1.39.05h-1.5l-3-.05-1.29-.07H221l-.34,0-.84-.16a4.18,4.18,0,0,1-2-.77,1.76,1.76,0,0,1-.76-1.43,7,7,0,0,1,1.41-2.87l.75-1.05.92-1.13a25.5,25.5,0,0,1,2-2.08c2.33-1.61,4.41-2.92,6.2-4,1.34-.77,2.6-1.38,3.7-1.88l2.25-.84a2.25,2.25,0,0,1,.53-.13l.09.06.12.15-.05.28-.35.72-.61.76c-.27.34-.45.55-.51.66l-2.64,1.29-1.58.81-1.75,1-3.31,2-1.43.92-1.38,1-.45.33-.64.57-1.2,1a2.37,2.37,0,0,0,.18.55c.31.33,1.89.68,4.68,1.05h11.54l1.41,0,1.29-.06,3.83-.24h.66l.27,0,1.32-.18,3.58-.57,7.22-.95a13.78,13.78,0,0,1,2.14-.2,7.2,7.2,0,0,1,2,.24l1.14.37a7.36,7.36,0,0,1,2.48,1.37A2.87,2.87,0,0,1,264,280v.42l-.12.49c-.13.39-.35.94-.67,1.66a2.63,2.63,0,0,1-1.36,1.46l-.47.13c0,.46.39.74,1.14.87l.84.08h1.3l.22-.07v3.38Zm9.14,0a3.18,3.18,0,0,1-1.36-.33,5.59,5.59,0,0,1-1.95-1.08,5.66,5.66,0,0,1-.78-1.11l-.39-.91a15.66,15.66,0,0,1-2,2.57,4.3,4.3,0,0,1-2.63.86V285.1l.67,0h.36l.28-.08.88-.21.52-.24a5.38,5.38,0,0,0,1.92-2.37c.34-.58.62-.87.88-.87a.59.59,0,0,1,.33.11l-.05.52,0,.77c0,.31.48.78,1.31,1.42a3.75,3.75,0,0,0,2.08.95v3.36Zm-5.19,9.43a3.85,3.85,0,0,1-.31,1.35c-.25.69-.47,1-.69,1a1.07,1.07,0,0,1-.53-.15l-.89-.5a2.65,2.65,0,0,1-1.08-1,3.3,3.3,0,0,1,.5-1.27,7.57,7.57,0,0,1,.7-1.25l.52.25.58.45.45.38Zm2.78-2.12a2.21,2.21,0,0,1,.76.91,2,2,0,0,1-.09.56,3.44,3.44,0,0,1-.26.71,2,2,0,0,1-1,1.25,3.73,3.73,0,0,1-1.16-.71,4.73,4.73,0,0,1-1.13-1.14l.24-.6.41-.84a2.91,2.91,0,0,1,.77-1.1c.2,0,.68.32,1.43,1Zm2.85-24.93a3.25,3.25,0,0,1-.29,1.34c-.25.72-.5,1.09-.75,1.09a3.57,3.57,0,0,1-1.3-.64c-.67-.43-1.07-.76-1.16-1s0-.43.27-.94a11,11,0,0,1,.91-1.64,1.22,1.22,0,0,1,.4.22l.68.49.71.57Zm3.19,12.83v.9l-.08.47-.09.57-.07.24-.1.31-.23.64-.26.66a2,2,0,0,1-1.27.9l-.67.13H274v-3.33a3.35,3.35,0,0,0,1.18-.24,1.67,1.67,0,0,0,.89-.75l-.14-.39-.2-.38a7.79,7.79,0,0,0-.55-.85,5.87,5.87,0,0,1-.63-1.54l.37-1a7.47,7.47,0,0,1,.55-1.31l.19,0c.29,0,.64.36,1,1.06a13.13,13.13,0,0,1,1,4Zm.75-14.34a4.33,4.33,0,0,1-.31,1.28,2.29,2.29,0,0,1-1,1.26,2.47,2.47,0,0,1-1.14-.67,4.82,4.82,0,0,1-1.1-1.19l.09-.41.18-.41.37-.64c.33-.64.58-1,.77-1a3.08,3.08,0,0,1,1.11.68,2.75,2.75,0,0,1,1,1.14Zm29.82,19.13a7.52,7.52,0,0,1-3.23-.72l-.85-.55a8,8,0,0,1-1-.89,8.11,8.11,0,0,0-1.78-1.36c-.32-.13-1.17.37-2.49,1.48s-2.1,2.17-2.1,3l.11.51c.15.27.61.52,1.46.79l1.35.3c.49.05.82.09,1,.09l.6,0h1.88l.43.08a1.8,1.8,0,0,1,1,.29,1.85,1.85,0,0,1,.65.87l.21.81a4.89,4.89,0,0,1-.26,1.75,3.85,3.85,0,0,1-1,1.47,20.92,20.92,0,0,1-6.66,4.64,14.63,14.63,0,0,1-5.86,1.45,6.47,6.47,0,0,1-5.06-2.18,8.72,8.72,0,0,1-1.67-5.61,11.06,11.06,0,0,1,.24-2l.31-1.14.2-.61.26-.66a9.13,9.13,0,0,1,1.64-3.11l.49-.22c.12,0,.18.05.18.2a.68.68,0,0,1-.08.31l-.61,1.3-.65,1.52a7.42,7.42,0,0,0-.34,4.43,5.87,5.87,0,0,0,1.52,2.72,6.2,6.2,0,0,0,4.36,1.44,13,13,0,0,0,2.84-.32,15.77,15.77,0,0,0,3-1.07,16.15,16.15,0,0,0,5.73-3.54l-.47-.18-.58-.09h-.77a19.36,19.36,0,0,1-4.61-.37q-2.22-.62-2.22-2.4a11.3,11.3,0,0,1,2-5.62c1.47-2.29,3.15-3.44,5-3.44l2.91,2.21a4.91,4.91,0,0,0,3,1ZM294.84,306a8.78,8.78,0,0,1,1.24,1.12,2.82,2.82,0,0,1-.27,1.36c-.26.68-.49,1-.73,1a1.31,1.31,0,0,1-.52-.14l-.9-.51a2.43,2.43,0,0,1-1.07-1,1.91,1.91,0,0,1,.28-.82l.91-1.72ZM297,274.51c.33.26.76.63,1.27,1.11A3.3,3.3,0,0,1,298,277c-.25.68-.49,1-.72,1a2.38,2.38,0,0,1-.51-.12,4.31,4.31,0,0,1-.9-.54c-.65-.43-1-.75-1.09-1a1.8,1.8,0,0,1,.3-.84l.91-1.7a3.68,3.68,0,0,1,1,.69Zm1.92,29.86a3.87,3.87,0,0,1,1.18,1.22,2,2,0,0,1-.09.55,1.82,1.82,0,0,1-.25.73,2.24,2.24,0,0,1-1,1.26,2.91,2.91,0,0,1-1.23-.72,4.31,4.31,0,0,1-1-1.16l.28-.65.37-.77a5.2,5.2,0,0,1,.73-1.1,2,2,0,0,1,.33.17c.09.06.35.21.7.47Zm2.59-31.17c.45.37.71.67.74.93a3.8,3.8,0,0,1-.34,1.24c-.33.82-.65,1.23-1,1.28a2.49,2.49,0,0,1-1.27-.74l-.43-.47-.53-.64.24-.66a4.22,4.22,0,0,1,.39-.81,2.39,2.39,0,0,1,.73-1.08,3.88,3.88,0,0,1,1.47.95Zm15.82,15.23a3.4,3.4,0,0,1-1.38-.33A5.61,5.61,0,0,1,314,287a5,5,0,0,1-.77-1.11l-.42-.91a13.92,13.92,0,0,1-2,2.57,4.27,4.27,0,0,1-2.62.86V285.1l.65,0h.38l.28-.08.86-.21.53-.24c.52-.2,1.15-1,1.91-2.37.34-.58.63-.87.9-.87a.64.64,0,0,1,.32.11l0,.52,0,.77c0,.31.49.78,1.33,1.42a3.74,3.74,0,0,0,2.06.95v3.36Zm-5.19,9.43a3.42,3.42,0,0,1-.31,1.35c-.23.69-.47,1-.68,1a1,1,0,0,1-.52-.15l-.9-.5a2.52,2.52,0,0,1-1.08-1,3.46,3.46,0,0,1,.48-1.27c.38-.72.62-1.14.7-1.25l.53.25.58.45.48.38Zm2.8-2.12a2.34,2.34,0,0,1,.75.91,3.14,3.14,0,0,1-.09.56,4,4,0,0,1-.25.71,2.09,2.09,0,0,1-1,1.25,3.52,3.52,0,0,1-1.16-.71,4.73,4.73,0,0,1-1.13-1.14l.25-.6.41-.84a3.07,3.07,0,0,1,.75-1.1c.22,0,.69.32,1.45,1Zm23.46-14.85a9.49,9.49,0,0,1-.78,3.73,2.94,2.94,0,0,1-2.62,2,4.44,4.44,0,0,1-1.87-.62l-1.08-.68a3.73,3.73,0,0,1-2,1.7,7.9,7.9,0,0,1-3.39.74,10.4,10.4,0,0,1-1.4-.09c-.46-.07-.78-.13-1-.17a4.76,4.76,0,0,1-.62-.24l-1.47.5-1.26.3-1,.19-1.39.16-1.18,0V285.1a17.51,17.51,0,0,0,3.31-.32,9.81,9.81,0,0,0,2.67-.83,4.08,4.08,0,0,0,1.76-1.51l.47-1.29c.18-.32.31-.48.41-.48s.15.18.15.53L326,282l-.55,2,.47.1H327a6.91,6.91,0,0,0,3.85-.85,3.18,3.18,0,0,0,1.29-1.79,6.9,6.9,0,0,1,.62-1.65,1.48,1.48,0,0,1,.47-.49l.35-.2c.11,0,.17.11.17.35l-.07.63-.1.45-.33,1.43a7,7,0,0,0,1.12.87l1.39.23.82-.34a1.88,1.88,0,0,0-.19-.92l-.1-.31.09-.41a2.85,2.85,0,0,1,.24-.69,11.79,11.79,0,0,0,.58-1.81l.19-.28c.16,0,.37.31.61,1a4.46,4.46,0,0,1,.36,1.6Zm23.74,4.34a4.37,4.37,0,0,1-.23,1.4q-.24.66-.57.66a.56.56,0,0,1-.19,0l-.71-.54-.57-.37a4.47,4.47,0,0,0-2.32-.59c-2.26,0-4.48,1.19-6.7,3.55l-5.1,6.61c-1.85,2.37-3.48,3.57-4.87,3.57a2.14,2.14,0,0,1-1.91-1.42,7.29,7.29,0,0,1-.55-3,13.48,13.48,0,0,1,.86-4l.52-1.4.37-.77.23-.48.24-.39.54-.89a.87.87,0,0,1,.48-.41c.17,0,.28.11.28.33l-.07.2-.57,1.26-.61,1.7-.36,1.5a9.76,9.76,0,0,0-.12,1.34,4.07,4.07,0,0,0,.35,1.84,1.36,1.36,0,0,0,1.27.93c.77,0,1.78-.61,3-1.84l3.48-4.44a43.17,43.17,0,0,1,4.95-5.33l.94-.71a8.29,8.29,0,0,1,1.17-.68,7,7,0,0,1,3.14-1.07,3.84,3.84,0,0,1,2.38,1,2.93,2.93,0,0,1,.91,1.09,5.46,5.46,0,0,1,.24.67A3,3,0,0,1,362.11,285.23Zm12.26,3.24h-.92a2.56,2.56,0,0,1-.27,1.08c-.18.4-.42.88-.74,1.45a15.07,15.07,0,0,1-2.52,3.47,9,9,0,0,1-3.68,2.48l-1.3-.14a6.8,6.8,0,0,1-.75-.09l-.48-.12a20,20,0,0,1-2.63-.61c-1.81-.44-2.71-.77-2.71-1s.19-.13.55-.13l1.68,0h.77l.76,0a10.12,10.12,0,0,0,3-.39,7.8,7.8,0,0,0,1.81-.83,20.25,20.25,0,0,0,2.27-1.69,9.75,9.75,0,0,0,3.06-3.56h-1.25a5.89,5.89,0,0,1-2.73-.49,2.87,2.87,0,0,1-1.34-2.81,7.5,7.5,0,0,1,1-3c.68-1.36,1.42-2.1,2.19-2.23.39-.08,1,.43,1.78,1.51a9.77,9.77,0,0,1,1.71,3.62h.66v3.37ZM367,274l2.58,2.59-3.23,2.6-2.44-3.09Zm3.89,11a2.09,2.09,0,0,0-.34-1.11,1,1,0,0,0-.9-.59c-.22,0-.49.19-.76.56l-.15.56a2.53,2.53,0,0,0,.84.5l.91.15h.24Zm12.63,3.4a3.21,3.21,0,0,1-1.35-.33,5.55,5.55,0,0,1-2-1.08,6.72,6.72,0,0,1-.78-1.11L379,285a15.82,15.82,0,0,1-2,2.57,4.35,4.35,0,0,1-2.65.86V285.1l.69,0h.35l.29-.08.87-.21.52-.24a5.24,5.24,0,0,0,1.91-2.37c.34-.58.63-.87.89-.87a.56.56,0,0,1,.32.11l0,.52,0,.77c0,.31.48.78,1.31,1.42a3.82,3.82,0,0,0,2.07.95Zm-5.18,9.43a4,4,0,0,1-.32,1.35c-.23.69-.47,1-.68,1a1.13,1.13,0,0,1-.53-.15l-.88-.5a2.46,2.46,0,0,1-1.08-1,3,3,0,0,1,.49-1.27,10.23,10.23,0,0,1,.69-1.25l.51.25.59.45.48.38Zm2.78-2.12a2.21,2.21,0,0,1,.76.91,3,3,0,0,1-.08.56,3.51,3.51,0,0,1-.27.71,2.12,2.12,0,0,1-1,1.25,3.43,3.43,0,0,1-1.17-.71,4.84,4.84,0,0,1-1.12-1.14l.24-.6.4-.84a3.14,3.14,0,0,1,.78-1.1,3.74,3.74,0,0,1,1.43,1Zm4.13-28.3-.42,1.26a2.12,2.12,0,0,1-.56.93.31.31,0,0,1-.22.07,3.53,3.53,0,0,1-1.36-.36c-.93-.31-1.39-.66-1.39-1a.46.46,0,0,1,.1-.32l.67-1.49c.24-.6.51-.88.78-.88a.52.52,0,0,1,.29.07l1.51.7c.41.23.64.51.64.82Zm.86,12.16a11.42,11.42,0,0,1,1,4v1l-.1.54-.08.37,0,.24-.11.31-.15.51-.28.66a2.63,2.63,0,0,1-1.29,1,7.43,7.43,0,0,1-1.58.16V285.1a3.59,3.59,0,0,0,1.34-.25,1.11,1.11,0,0,0,.72-.8,8.05,8.05,0,0,0-.87-1.56,4.86,4.86,0,0,1-.63-1.52l.35-1a11.11,11.11,0,0,1,.55-1.29c.34-.15.74.16,1.14,1Zm14.51,4a9.54,9.54,0,0,1-.08,1.46v.42l-.1.31-.17.88a17.62,17.62,0,0,1-.4,1.81c-.16.6-.36,1.24-.59,1.92l-1.16,1.79L397,293.82a10.57,10.57,0,0,1-2.57,2.31,6,6,0,0,1-3.32,1,20.14,20.14,0,0,1-2.39-.18c-1-.13-2.28-.37-3.76-.69-.27-.05-.41-.18-.41-.38a.55.55,0,0,1,.17-.37l.39-.16h.74l.74,0,1-.07h.22a.36.36,0,0,0,.22,0l.56-.14a8.3,8.3,0,0,0,1.73-.51,13.33,13.33,0,0,0,1.65-.68,15.69,15.69,0,0,0,2.9-1.9,13.68,13.68,0,0,0,4.13-5.38l.05-.42a2.25,2.25,0,0,0-.09-.72l-.13-.38-.15-.4a11,11,0,0,1-.67,1.68,1.75,1.75,0,0,1-1.56.9,3.09,3.09,0,0,1-2.16-1,2.94,2.94,0,0,1-.8-1.94l0-.2a9.61,9.61,0,0,1,1.1-3.53,5.32,5.32,0,0,1,2.21-2.42c.86,0,1.71.61,2.56,1.84a6.28,6.28,0,0,1,1.28,3.54Zm-3.28-.47a.89.89,0,0,0-.53-.61,2,2,0,0,0-.79-.14l-.23.32-.14.43c0,.16.19.31.53.45l.51.12a.42.42,0,0,0,.32-.16ZM407.81,286v.7l-.1.74,0,.31-.21.5c-.14.33-.29.51-.45.55s-.29-.46-.58-1.38l-.56-4.2-.58-5.69L405,275.2l-.13-1.18-.14-.87-.42-2.94a16.26,16.26,0,0,1-.19-1.9,9.52,9.52,0,0,1,.14-1.83,3.23,3.23,0,0,1,.46-1.18l.34-.41c.13,0,.25.3.37.9s.28,1.7.48,3.31l.36,3,.42,3.32.51,4.7.38,3.59v.73l.09.5Z"/><rect class="cls-5" x="168.51" y="242.06" width="240.15" height="13.11"/><rect class="cls-5" x="168.51" y="123.47" width="240.15" height="13.11"/><rect class="cls-4" x="168.51" y="136.53" width="240.15" height="105.47"/><path class="cls-6" d="M221.22,148.88h7.71v44.83a70.52,70.52,0,0,1-2,18.49,21.31,21.31,0,0,1-7.29,11.41c-3.54,2.8-8,4.18-13.47,4.18-7.67,0-13.44-2.51-17.24-7.52s-5.75-13.85-5.75-26.56V148.88h7.71v44.77q0,10.53,1.5,15.25a13.54,13.54,0,0,0,4.91,7.16,13.81,13.81,0,0,0,8.3,2.47q8.23,0,11.94-5.09t3.7-19.79V148.88Z"/><path class="cls-6" d="M187.68,221.2c-4.18-5.53-6-14.64-6-27.49h0V147.36H192.4v46.29c0,6.95.52,11.94,1.42,14.78h0a12.08,12.08,0,0,0,4.36,6.38h0a12.11,12.11,0,0,0,7.4,2.17h0c5.2,0,8.55-1.53,10.69-4.44h0c2.12-2.79,3.45-9.21,3.43-18.89h0V147.36h10.76v46.35a72.61,72.61,0,0,1-2.06,18.9h0a22.85,22.85,0,0,1-7.84,12.19h0c-3.83,3-8.71,4.52-14.41,4.52H206c-7.93,0-14.24-2.7-18.35-8.12Zm-3-27.49c0,12.55,2,21.15,5.42,25.64h0c3.52,4.58,8.67,6.88,16,6.91h0c5.2,0,9.29-1.32,12.52-3.85h0a19.82,19.82,0,0,0,6.77-10.61h0c1.29-4.62,1.95-10.68,1.95-18.09h0V150.42h-4.63v43.22c0,10-1.17,16.74-4,20.7h0c-2.79,3.87-7.39,5.75-13.18,5.72h0a15.35,15.35,0,0,1-9.18-2.76h0a15,15,0,0,1-5.5-7.94h0c-1.07-3.44-1.55-8.61-1.57-15.72h0V150.42H184.7v43.29Z"/><path class="cls-6" d="M188.18,220.92c-4.05-5.35-5.94-14.41-5.94-27.21h0V147.87h9.56v45.78c0,7,.52,12,1.46,14.92h0a12.64,12.64,0,0,0,4.54,6.64h0a13.06,13.06,0,0,0,7.78,2.3h0c5.34,0,9-1.62,11.21-4.71h0c2.21-3,3.52-9.44,3.5-19.16h0V147.87h9.57v45.84a71.45,71.45,0,0,1-2.06,18.79h0a22.5,22.5,0,0,1-7.63,11.94h0c-3.73,2.93-8.44,4.37-14,4.37h-.05c-7.81,0-13.9-2.61-17.92-7.89Zm-4.07-27.21c0,12.59,1.93,21.25,5.51,25.9h0c3.61,4.73,9,7.14,16.53,7.15h0c5.31,0,9.57-1.35,12.91-4h0a20.29,20.29,0,0,0,7-10.88h0q1.95-7,2-18.18h0v-43.8h-5.83v43.74c0,9.9-1.18,16.65-3.89,20.43h0c-2.7,3.7-7,5.47-12.68,5.46h0a14.71,14.71,0,0,1-8.81-2.62h0a14.49,14.49,0,0,1-5.28-7.69h0c-1.07-3.36-1.54-8.5-1.55-15.59h0V149.91h-5.83v43.81Z"/><path class="cls-6" d="M206.18,230.34h-.08c-8.14,0-14.82-2.77-19.12-8.49h0l1.2-.93-1.2.93c-4.42-5.87-6.25-15.2-6.27-28.14h0V146.33h12.62v47.4h0c0,6.83.53,11.75,1.38,14.36h0a11.08,11.08,0,0,0,4,5.88h0a11.37,11.37,0,0,0,6.89,2h0c5,0,8-1.46,10-4.07h0c1.82-2.35,3.23-8.58,3.2-18h0a2.07,2.07,0,0,1,0-.26h0V146.33h12.63v47.38a73.4,73.4,0,0,1-2.1,19.19h0a23.91,23.91,0,0,1-8.18,12.73h0a23.14,23.14,0,0,1-14.19,4.7h-.74Zm-20.54-36.61v.08h0c0,12.39,2,20.77,5.19,24.87h0c3.33,4.31,8.13,6.52,15.32,6.53h0c5.06,0,8.93-1.24,12-3.64h0a18.71,18.71,0,0,0,6.42-10.08h0a68.09,68.09,0,0,0,1.92-17.78h0V151.43h-2.77v42.23c0,10-1.11,17-4.19,21.32h0c-3,4.14-7.87,6.09-13.73,6.1h-.21a16.38,16.38,0,0,1-9.68-2.91h0a16.13,16.13,0,0,1-5.86-8.48h0c-1.13-3.64-1.61-8.88-1.61-16h0V151.43h-2.77v42.28h-1.53Z"/><path class="cls-6" d="M260.49,227.73V158.21H240.28V148.9H288.9v9.31H268.6v69.52Z"/><path class="cls-6" d="M260.49,229.26v-1.53h0v1.53H259V159.73h-20.2V147.37h51.69v12.36H270.13v69.53Zm6.57-3.07V156.68h20.32v-6.24H241.82v6.24H262v69.51Z"/><path class="cls-6" d="M260.49,228.76v-1h0v1h-1V159.24H239.3V147.86h50.58v11.38H269.57v69.52Zm7.11-2.08V157.16h20.32v-7.22H241.27v7.22h20.2v69.52Z"/><path class="cls-6" d="M260.49,230.3H258V160.77h-20.2V146.33h53.64v14.44h-20.3V230.3Zm7.11-3.62v0Zm-24.8-71H263v69.51h3.09V155.62h20.3v-4.16H242.8v4.18Z"/><path class="cls-6" d="M315.38,209.14l8,1.2c-1.34,6-3.78,10.53-7.27,13.59a19.2,19.2,0,0,1-13,4.57,19.45,19.45,0,0,1-15.85-7.43q-6.06-7.42-6.06-21.47,0-14.55,6.12-22.2a19,19,0,0,1,15.47-7.65c6,0,10.94,2.52,14.92,7.52s6,12.26,6,21.75l-.05,2.55H289.22q.5,9.47,4.41,14.28a11.85,11.85,0,0,0,9.51,4.82q8.79,0,12.24-11.53Zm-25.68-15.4h25.73c-.36-4.87-1.41-8.51-3.12-10.91-2.52-3.48-5.71-5.24-9.58-5.24a11.39,11.39,0,0,0-9,4.37q-3.69,4.36-4.08,11.78Z"/><path class="cls-6" d="M286.06,222c-4.35-5.33-6.41-12.87-6.41-22.43h0c0-9.9,2.07-17.67,6.45-23.15h0a20.49,20.49,0,0,1,16.68-8.21h0c6.4,0,11.94,2.78,16.12,8.08h0c4.29,5.4,6.31,13,6.32,22.74h0l-.09,4H290.87c.45,5.3,1.83,9.21,3.95,11.81h0c2.4,2.91,5,4.22,8.32,4.23h0a8.88,8.88,0,0,0,6.4-2.47h0c1.78-1.66,3.27-4.29,4.37-8h0l.38-1.27,11,1.65-.36,1.62c-1.39,6.21-3.94,11.06-7.77,14.39h0a20.65,20.65,0,0,1-14,4.95H303A21,21,0,0,1,286.06,222Zm2.43-43.66c-3.77,4.7-5.77,11.74-5.77,21.23h0c0,9.14,2,15.92,5.72,20.5h0A17.94,17.94,0,0,0,303.1,227h0a17.76,17.76,0,0,0,12-4.21h0c2.9-2.52,5.06-6.18,6.39-11.16h0l-5.09-.77a19.33,19.33,0,0,1-4.8,8h0a11.9,11.9,0,0,1-8.49,3.31h0a13.42,13.42,0,0,1-10.71-5.38h0c-2.9-3.59-4.4-8.68-4.72-15.18h0l-.1-1.61h34.51l0-1c0-9.29-1.95-16.17-5.64-20.79h0c-3.78-4.71-8.2-6.91-13.72-6.94h0c-5.81,0-10.43,2.28-14.29,7.08Zm1.21,16.9h-1.61l.09-1.62c.25-5.17,1.69-9.46,4.43-12.68h0a12.88,12.88,0,0,1,10.12-4.91h0a13,13,0,0,1,10.82,5.87h0c2,2.78,3,6.68,3.4,11.69h0l.13,1.65Zm24-3.07c-.43-3.87-1.38-6.7-2.69-8.48h0c-2.31-3.17-4.92-4.56-8.32-4.6h0a9.8,9.8,0,0,0-7.79,3.82h0a16.64,16.64,0,0,0-3.57,9.26h22.37Z"/><path class="cls-6" d="M286.46,221.7c-4.25-5.2-6.3-12.61-6.3-22.1h0c0-9.83,2.07-17.47,6.34-22.84h0a20.06,20.06,0,0,1,16.28-8h0c6.25,0,11.59,2.69,15.71,7.9h0c4.2,5.28,6.22,12.77,6.22,22.41h0l-.08,3.53H290.31c.42,5.65,1.83,9.85,4.09,12.63h0a11,11,0,0,0,8.74,4.44h0c5.34-.05,9-3.33,11.26-10.81h0l.24-.84,10,1.5-.25,1.06c-1.37,6.15-3.88,10.9-7.6,14.13h0a20.23,20.23,0,0,1-13.71,4.84H303a20.44,20.44,0,0,1-16.57-7.83Zm1.65-43.65c-3.88,4.83-5.9,12-5.9,21.55h0c0,9.22,2,16.12,5.83,20.81h0a18.39,18.39,0,0,0,15.06,7.06h0a18.07,18.07,0,0,0,12.36-4.32h0c3.11-2.69,5.36-6.64,6.7-12h0l-6.06-.92c-2.37,7.35-6.8,11.44-13,11.41h0a12.91,12.91,0,0,1-10.31-5.19h0c-2.81-3.46-4.28-8.44-4.61-14.89h0l-.06-1.07h34.47l0-1.52c0-9.35-2-16.36-5.75-21.1h0c-3.85-4.81-8.46-7.11-14.12-7.13h0a17.93,17.93,0,0,0-14.67,7.26Zm1.59,16.7h-1.07l.05-1.07c.26-5.09,1.67-9.26,4.32-12.39h0a12.42,12.42,0,0,1,9.73-4.73h0a12.45,12.45,0,0,1,10.4,5.68h0c1.9,2.64,2.95,6.44,3.3,11.42h0l.09,1.09Zm24.61-2c-.4-4.21-1.4-7.32-2.84-9.29h0c-2.39-3.29-5.18-4.8-8.74-4.82h0a10.32,10.32,0,0,0-8.17,4h0a17.41,17.41,0,0,0-3.75,10.1h23.5Z"/><path class="cls-6" d="M285.26,222.67h0c-4.54-5.59-6.62-13.37-6.62-23.07h0c0-10,2.08-18,6.67-23.79h0a21.54,21.54,0,0,1,17.4-8.6h.12a21,21,0,0,1,16.88,8.46h0c4.47,5.67,6.52,13.53,6.52,23.41h0l-.1,5H292c.52,4.6,1.79,7.94,3.59,10.11h0c2.29,2.75,4.53,3.84,7.54,3.87h0a7.91,7.91,0,0,0,5.71-2.17h0c1.57-1.5,3-3.94,4.08-7.54h0l.63-2.12,12.94,2-.36,1.6-.24,1.08c-1.42,6.35-4,11.44-8.08,14.94h0a21.66,21.66,0,0,1-14.48,5.2H303a22.07,22.07,0,0,1-17.7-8.39Zm-1.52-23.34v.27c0,9,2,15.53,5.48,19.84h0A16.88,16.88,0,0,0,303.09,226h0a16.63,16.63,0,0,0,11.37-4h0a20,20,0,0,0,5.75-9.54h0l-3.08-.47c-2.54,7-7.4,11.27-13.9,11.23h-.13a14.47,14.47,0,0,1-11.46-5.74h0c-3.09-3.84-4.63-9.16-5-15.78h0l-.14-2.68h34.59c0-9.15-1.95-15.78-5.42-20.14h0c-3.67-4.52-7.69-6.51-12.93-6.55h0c-5.55,0-9.75,2.1-13.49,6.68h0c-3.52,4.4-5.51,11.1-5.55,20.32h0Zm2.72,22.37.39-.31h0Zm1.65-43.65-.4-.33h0Zm1.59,18.24v0H287l.08-1.61.06-1.07c.27-5.34,1.76-9.87,4.68-13.3h0A13.9,13.9,0,0,1,302.68,175h.1a13.93,13.93,0,0,1,11.6,6.31h0c2.14,3,3.21,7.09,3.59,12.21h0l.21,2.74Zm24.61-3.57.51-.07-.51.07v0Zm-1.74-1.54a15.61,15.61,0,0,0-2.34-6.86h0c-2.21-3-4.39-4.12-7.5-4.18h0a8.8,8.8,0,0,0-7,3.46h0a15,15,0,0,0-3.2,7.58h20Z"/><path class="cls-6" d="M336.28,228.9V149.06h12.07l14.38,56.53,2.88,11.83q1.06-4.41,3.23-12.81l14.55-55.55h10.79V228.9h-7.7V162.13l-17.7,66.77h-7.19L344,161V228.9Z"/><path class="cls-6" d="M384.94,230.43V173.9l-15,56.53h-9.58L345.53,173v57.41h-9.25V228.9h0v1.53h-1.54v-82.9h14.8l14.69,57.7,1.4,5.76c.51-2,1.07-4.24,1.73-6.75h0l14.85-56.72h13.52v82.91Zm3.07-68.3v65.24h4.65V150.6h-8.08L370.33,205q-2.16,8.4-3.23,12.78h-3L361.24,206,347.13,150.6h-9.31v76.77h4.66V161l3-.39,17.28,66.78h4.83L385,161.73Z"/><path class="cls-6" d="M385.49,229.94v-60.3l-16,60.3h-8.69L345,168.66v61.28h-8.69v-1h0v1h-1V148h13.78l14.6,57.33,1.93,8c.62-2.47,1.37-5.45,2.28-9h0L382.66,148h12.5v81.94Zm2-67.81v65.73h5.75V150.12h-9.08L369.79,204.9c-1.46,5.58-2.53,9.86-3.23,12.77h0l-.93,3.92-3.83-15.72-14.2-55.75H337.26v77.74H343V161l1.91-.28,17.38,67.16h5.73l17.48-66Z"/><path class="cls-6" d="M385.49,231.49v-1.55h0v1.55H384V181.42l-13.24,50.07H359.65L346.51,180.7v50.79H333.79v-85h16.48L365.17,205l.48,2c.24-.95.51-2,.78-3h0l15-57.46h15.24v85Zm-22-5.17h3.35l17.54-66.2,3.26.48-.21,1.53.21-1.53,1.31.21v65.51h2.71V151.64h-6.38l-14,53.64q-2.16,8.39-3.22,12.76h0l-.94,3.9h-3l-3.82-15.69-13.89-54.61h-7.62v74.68h2.7V159.66l4.59-.68Zm2.09-11.25c.1-.45.24-.93.36-1.41h-.7Zm20.31-45.58V166.4l-.79,3Zm-41.37-1,.82-.1-.82-3.07Z"/><path class="cls-6" d="M76.53,102.64A76.24,76.24,0,0,0,73.9,255.07v.05h78.89V178.88A76.25,76.25,0,0,0,76.53,102.64Z"/><path class="cls-4" d="M151.17,187.74v-3.69h-4.84l1-1.05H77.26v-3.51H151.1a73.85,73.85,0,1,0-74.63,73.85v0h74.7v-3.68H80.69l1-1.05H77.26V245h73.91v-3.69H89.06l1-1H77.26V237h73.91v-3.69H97.06l1-1H77.26v-3.44h73.91v-3.7H105.24l1-1h-29v-3.64h73.91v-3.68H113.6l1-1.05H77.26v-3.28h73.91v-3.68H121.6l1-1H77.26v-3.64h73.91v-3.68H130l1-1H77.26v-3.63h73.91V192H138.32l1.05-1H77.26v-3.26Z"/><path class="cls-5" d="M139.26,178.55c-.14-34.18-28.14-62-62.66-62a62.48,62.48,0,1,0-.13,125v11a73.51,73.51,0,1,1,.13-147c40.63,0,73.59,32.79,73.73,73.06Z"/><path class="cls-5" d="M76.47,253.52A74.63,74.63,0,0,1,1.84,179h0A74.65,74.65,0,0,1,76.6,104.47h0c41.18,0,74.6,33.23,74.73,74.08h0v1H139.26v-1h0v1h-1v-1c-.13-33.62-27.68-61-61.64-61h0a61.49,61.49,0,0,0-43.59,18h0A61.15,61.15,0,0,0,15,179h0a61.55,61.55,0,0,0,61.52,61.45h1v13.07ZM25.17,127.75A72.19,72.19,0,0,0,3.89,179h0a72.58,72.58,0,0,0,71.56,72.47h0v-9A63.58,63.58,0,0,1,12.91,179h0A63.59,63.59,0,0,1,76.6,115.5h0c34.74,0,63,27.72,63.67,62h9c-.67-39.23-33-71-72.69-71h0a72.62,72.62,0,0,0-51.43,21.23Z"/><path class="cls-7" d="M67.42,250.41l-1.61-.28.74-4.32a8.77,8.77,0,0,0,.18-1.35,1.39,1.39,0,0,0-.37-.88,1.78,1.78,0,0,0-1-.48,1.71,1.71,0,0,0-1.09.11,1.12,1.12,0,0,0-.54.62,8.51,8.51,0,0,0-.3,1.34l-.76,4.42L61,249.31l.72-4.2a11.37,11.37,0,0,1,.47-2,2.23,2.23,0,0,1,.67-.91,2.41,2.41,0,0,1,1.06-.48,4,4,0,0,1,1.58,0,4.57,4.57,0,0,1,1.68.57,2.61,2.61,0,0,1,.84.85,2.1,2.1,0,0,1,.28,1,9,9,0,0,1-.18,2.06Z"/><path class="cls-7" d="M59.62,240.63l-2.51,7.68-1.54-.48-1.46-6.18-1.69,5.14L51,246.31l2.53-7.69,1.56.52,1.48,6.05,1.65-5Z"/><path class="cls-7" d="M50.9,237.48l-3.33,7.38-1.5-.68,3.35-7.37Z"/><path class="cls-7" d="M45.15,234.61l-1.55,8.47-1.54-.89L43.28,236l-4.73,4.2-1.5-.87,6.57-5.56Z"/><path class="cls-7" d="M39.49,231.13l-5,6.38-4.77-3.71.84-1.07,3.48,2.69,1.1-1.41L32,231.49l.83-1.06,3.21,2.5,1.37-1.73-3.6-2.8.83-1.08Z"/><path class="cls-7" d="M32.71,225.62l-5.81,5.63-2.4-2.48a6.08,6.08,0,0,1-1.17-1.52,1.87,1.87,0,0,1-.1-1.22,2.42,2.42,0,0,1,2.12-1.8,2.57,2.57,0,0,1,1.66.65,3.76,3.76,0,0,1-.12-1.11,9.27,9.27,0,0,1,.29-1.59l.44-1.81L29,221.79l-.45,2.06a10.82,10.82,0,0,0-.24,1.45,1.15,1.15,0,0,0,.11.6,2.52,2.52,0,0,0,.49.66l.24.24,2.42-2.36Zm-4.49,2.07-.85-.87a6.89,6.89,0,0,0-1.1-1,.93.93,0,0,0-.57-.08,1,1,0,0,0-.54.29.93.93,0,0,0-.33.62.92.92,0,0,0,.2.66c.08.11.35.4.81.89l.89.91Z"/><path class="cls-7" d="M24.5,220.66l-1.07-1.19A2,2,0,0,0,24,218.3a1.67,1.67,0,0,0-.41-1.19,1.82,1.82,0,0,0-1-.77,1,1,0,0,0-.87.13.65.65,0,0,0-.28.43,1.11,1.11,0,0,0,.05.68c.06.2.22.63.48,1.28a4.45,4.45,0,0,1,.44,2,2.09,2.09,0,0,1-.86,1.57,2.21,2.21,0,0,1-1.15.4,2.44,2.44,0,0,1-1.26-.34,4.57,4.57,0,0,1-1.17-1.13,3.35,3.35,0,0,1-.8-2.26,2.28,2.28,0,0,1,.94-1.7l1,1.29a1.28,1.28,0,0,0-.46.88,1.65,1.65,0,0,0,.4,1,1.81,1.81,0,0,0,.89.75.59.59,0,0,0,.55-.09.58.58,0,0,0,.27-.49,4.27,4.27,0,0,0-.46-1.53,7.06,7.06,0,0,1-.55-1.78,2.5,2.5,0,0,1,.11-1.22,2.57,2.57,0,0,1,.87-1,2.54,2.54,0,0,1,1.28-.46,2.31,2.31,0,0,1,1.37.37,4.54,4.54,0,0,1,1.28,1.25,3.59,3.59,0,0,1,.82,2.34,3.1,3.1,0,0,1-1.09,2Z"/><path class="cls-7" d="M21.48,211.61l-7,4.08-.84-1.43,7-4.07Z"/><path class="cls-7" d="M18.58,206.17,12.45,209l1,2.21-1.25.57-2.67-5.89,1.23-.56,1,2.18,6.12-2.8Z"/><path class="cls-7" d="M16.21,200.45l-7.65,2.63L8,201.53l7.65-2.62Z"/><path class="cls-7" d="M12.9,186.09l-6.7.64.24,2.42-1.36.13-.63-6.43,1.37-.14.23,2.4,6.69-.65Z"/><path class="cls-7" d="M12.45,179.85l-8.07-.27.19-6,1.37.05L5.8,178l1.79.07L7.73,174l1.35.05-.14,4.07,2.21.08.15-4.55,1.36,0Z"/><path class="cls-7" d="M12.93,171.13l-8-1.41.29-1.61,3.54.62-2.95-3.88.37-2.19,2.58,3.56,5.43-2.3L13.83,166l-4.14,1.55,1.12,1.54,2.4.44Z"/><path class="cls-7" d="M14.76,162,7.09,159.4l.51-1.52,6.18-1.44-5.12-1.72.49-1.46,7.66,2.59-.52,1.56-6,1.43,5,1.69Z"/><path class="cls-7" d="M18,153.26l-7.34-3.37.68-1.49,7.35,3.39Z"/><path class="cls-7" d="M19.83,149.3l-6.95-4.17.84-1.4,3.09,1.85-1.38-4.7L16.57,139l1.13,4.25,5.9-.24-1.1,1.82-4.39,0,.47,1.85,2.09,1.25Z"/><path class="cls-7" d="M29.44,135.73l-1.14,1.39-1.88-.63L24.37,139l1,1.69-1.1,1.36L20,134.47l1.09-1.35ZM25,136l-3-1,1.62,2.76Z"/><path class="cls-7" d="M30.91,134.31l-5.47-5.89,1.2-1.11,4.55,4.88,3-2.8.92,1Z"/><path class="cls-7" d="M43.78,124.16,40.1,117l2.18-1.12,3.84,4.23L44.9,114.5l2.19-1.12,3.69,7.21-1.36.69-2.9-5.68L48,122l-1.4.72-4.34-4.93,2.91,5.67Z"/><path class="cls-7" d="M60.34,117.27l-1.71.55-1.24-1.53-3.09,1-.07,2-1.65.55.49-8.68,1.64-.54Zm-3.88-2.1-2-2.5-.11,3.19Z"/><path class="cls-7" d="M62.34,116.84,60.88,109l1.62-.29,1.21,6.55,4-.73.24,1.33Z"/><path class="cls-7" d="M77.6,115.19l-1.79.1L75,113.48l-3.26.15-.58,1.87-1.73.09,2.79-8.24,1.74-.08Zm-3.18-3-1.25-3-1,3.06Z"/><path class="cls-7" d="M80.71,115.44l.25-3.39-2.6-4.91,1.91.16,1.66,3.34,2.13-3,1.87.13-3.34,4.46-.25,3.39Z"/><path class="cls-7" d="M87.4,113.47l1.6.18a2.08,2.08,0,0,0,.32,1.27,1.81,1.81,0,0,0,1.08.62,1.78,1.78,0,0,0,1.24-.09.93.93,0,0,0,.56-.68.7.7,0,0,0-.06-.51,1.3,1.3,0,0,0-.51-.46,13.1,13.1,0,0,0-1.22-.62A4.52,4.52,0,0,1,88.77,112a2.14,2.14,0,0,1-.38-1.76,2.08,2.08,0,0,1,.6-1,2,2,0,0,1,1.15-.58,4,4,0,0,1,1.61,0,3.38,3.38,0,0,1,2.12,1.14,2.35,2.35,0,0,1,.43,1.91l-1.63-.26a1.33,1.33,0,0,0-.25-1,1.64,1.64,0,0,0-1-.49,1.87,1.87,0,0,0-1.17.06.6.6,0,0,0-.36.43.59.59,0,0,0,.15.54,4.27,4.27,0,0,0,1.36.83,8.76,8.76,0,0,1,1.62,1,2.31,2.31,0,0,1,.7,1,2.34,2.34,0,0,1,0,1.32,2.26,2.26,0,0,1-.65,1.2,2.34,2.34,0,0,1-1.25.66,4.51,4.51,0,0,1-1.8-.09,3.5,3.5,0,0,1-2.16-1.2,3,3,0,0,1-.54-2.21Z"/><path class="cls-7" d="M95.67,118.19l2.49-7.71,1.56.51-2.48,7.69Z"/><path class="cls-7" d="M106.5,122.51l-1.63-.73.1-2-3-1.32-1.35,1.41-1.59-.71,6.17-6.09,1.6.7ZM105,118.36l.21-3.2-2.22,2.3Z"/><path class="cls-7" d="M115.1,127.94l5.23-6.17,1.87,1.58-2.42,5.16,4.67-3.27,1.88,1.59L121.1,133l-1.16-1,4.11-4.87L118.71,131l-1.21-1,2.89-5.91-4.14,4.88Z"/><path class="cls-7" d="M123,135l6.1-5.34,4,4.54-1,.9-2.89-3.3L127.83,133l2.69,3.07-1,.91-2.69-3.08-1.65,1.45,3,3.42-1,.89Z"/><path class="cls-7" d="M128.65,141.74l6.69-4.44.91,1.37-5.56,3.7,2.27,3.4-1.13.74Z"/><path class="cls-7" d="M136.17,155.13l-.78-1.6,1.36-1.46-1.41-2.93-2,.21-.76-1.58,8.66-.66.77,1.56Zm1.56-4.12L140,148.7l-3.17.31Z"/><path class="cls-7" d="M136.87,157.05l7.74-2.41.47,1.55-3.43,1.09,4.42,2.1.66,2.1-3.91-2-3.77,4.55-.62-2,2.95-3.27-1.69-.86-2.33.73Z"/><path class="cls-7" d="M140.58,173.25l-.28-1.76,1.71-1-.51-3.22-1.91-.38-.28-1.72,8.49,1.89.26,1.72Zm2.69-3.47,2.79-1.57-3.13-.62Z"/><path class="cls-6" d="M72.74,180.69a4,4,0,1,1,4,3.86A3.91,3.91,0,0,1,72.74,180.69Z"/><rect class="cls-4" x="309.22" y="204.2" width="19.92" height="3.92"/><path class="cls-4" d="M0,322.38H2.83V330A14.68,14.68,0,0,0,3,332.36a2.22,2.22,0,0,0,.86,1.41,3.18,3.18,0,0,0,1.88.52,2.84,2.84,0,0,0,1.82-.51,1.94,1.94,0,0,0,.75-1.21,16.46,16.46,0,0,0,.12-2.4v-7.79h2.84v7.4a19.62,19.62,0,0,1-.22,3.59,4.34,4.34,0,0,1-.85,1.78,4.32,4.32,0,0,1-1.66,1.13,7.12,7.12,0,0,1-2.72.44,7.68,7.68,0,0,1-3.05-.47A4.23,4.23,0,0,1,1.07,335a4,4,0,0,1-.8-1.56A17.52,17.52,0,0,1,0,329.9Z"/><path class="cls-4" d="M14.26,336.47V322.38H17l5.78,9.41v-9.41h2.64v14.09H22.59l-5.68-9.18v9.18Z"/><path class="cls-4" d="M28.36,336.47V322.38H31.2v14.09Z"/><path class="cls-4" d="M37.52,336.47l-5.06-14.09h3.11l3.56,10.43,3.46-10.43h3l-5.06,14.09Z"/><path class="cls-4" d="M47,336.47V322.38H57.49v2.39H49.9v3.11H57v2.39H49.9v3.83h7.86v2.37Z"/><path class="cls-4" d="M60.18,336.47V322.38h6a9.91,9.91,0,0,1,3.28.39,3.07,3.07,0,0,1,1.63,1.35,3.87,3.87,0,0,1,.61,2.21,3.82,3.82,0,0,1-.92,2.62,4.42,4.42,0,0,1-2.79,1.3,7.16,7.16,0,0,1,1.53,1.18,16.88,16.88,0,0,1,1.62,2.3l1.72,2.74h-3.4l-2.06-3.06c-.74-1.09-1.24-1.79-1.49-2.07a2.25,2.25,0,0,0-.86-.6,5.41,5.41,0,0,0-1.44-.15H63v5.88ZM63,328.34h2.11a11.52,11.52,0,0,0,2.56-.16,1.55,1.55,0,0,0,.79-.61,1.7,1.7,0,0,0,.29-1.06,1.64,1.64,0,0,0-.37-1.13,1.78,1.78,0,0,0-1.07-.57c-.24,0-.94,0-2.08,0H63v3.57Z"/><path class="cls-4" d="M73.66,331.89l2.78-.27a3.35,3.35,0,0,0,1,2.05,3.08,3.08,0,0,0,2.06.65,3.16,3.16,0,0,0,2.06-.58,1.66,1.66,0,0,0,.71-1.36,1.29,1.29,0,0,0-.3-.86,2.63,2.63,0,0,0-1-.61c-.33-.1-1.09-.32-2.28-.6a7.9,7.9,0,0,1-3.2-1.4,3.66,3.66,0,0,1-1.3-2.83,3.69,3.69,0,0,1,.6-2,3.93,3.93,0,0,1,1.76-1.43,7,7,0,0,1,2.79-.48,6,6,0,0,1,4,1.15,4.12,4.12,0,0,1,1.4,3.11l-2.85.13a2.34,2.34,0,0,0-.79-1.57,2.84,2.84,0,0,0-1.79-.48,3.31,3.31,0,0,0-1.94.51,1,1,0,0,0-.46.87,1,1,0,0,0,.43.86,7.42,7.42,0,0,0,2.61.95,14.15,14.15,0,0,1,3.07,1,4,4,0,0,1,1.56,1.43,4.23,4.23,0,0,1-2,6.09,8,8,0,0,1-3.07.51,6.06,6.06,0,0,1-4.09-1.23,5.38,5.38,0,0,1-1.72-3.6Z"/><path class="cls-4" d="M87.43,336.47V322.38h2.84v14.09Z"/><path class="cls-4" d="M96.16,336.47v-11.7H92v-2.38h11.19v2.38H99v11.7Z"/><path class="cls-4" d="M104.92,336.47V322.38h2.84v14.09Z"/><path class="cls-4" d="M119.11,336.47v-11.7h-4.18v-2.38h11.21v2.38H122v11.7Z"/><path class="cls-4" d="M128,336.47V322.38h10.45v2.39h-7.59v3.11h7.08v2.39h-7.08v3.83h7.87v2.37Z"/><path class="cls-4" d="M141.13,336.47V322.38H144v6.25l5.73-6.25h3.83l-5.3,5.49,5.59,8.6h-3.67l-3.89-6.61L144,332.22v4.25Z"/><path class="cls-4" d="M155.35,336.47V322.38h2.76l5.77,9.41v-9.41h2.64v14.09h-2.86L158,327.29v9.18Z"/><path class="cls-4" d="M169.44,336.47V322.38h2.84v14.09Z"/><path class="cls-4" d="M175,336.47V322.38h2.86v6.25l5.74-6.25h3.83l-5.3,5.49,5.59,8.6h-3.69l-3.86-6.61-2.31,2.36v4.25Z"/><path class="cls-4" d="M201.91,336.47h-3.09l-1.23-3.2H192l-1.16,3.2h-3l5.49-14.09h3Zm-5.23-5.57-2-5.23-1.88,5.23Z"/><path class="cls-4" d="M203.5,336.47v-14h2.84V334.1h7.08v2.37Z"/><path class="cls-4" d="M220.52,336.47V322.38h4.26l2.54,9.62,2.54-9.62h4.27v14.09h-2.64V325.38l-2.8,11.09H226l-2.78-11.09v11.09Z"/><path class="cls-4" d="M249.66,336.47h-3.1l-1.23-3.2h-5.62l-1.17,3.2h-3L241,322.38h3Zm-5.25-5.57-1.92-5.23-1.9,5.23Z"/><path class="cls-4" d="M251.25,336.47v-14h2.84V334.1h7.07v2.37Z"/><path class="cls-4" d="M275.9,336.47h-3.1l-1.23-3.2h-5.63l-1.17,3.2h-3l5.5-14.09h3Zm-5.24-5.57-2-5.23-1.89,5.23Z"/><path class="cls-4" d="M279.31,336.47v-5.92l-5.18-8.17h3.35l3.31,5.58,3.24-5.58h3.28l-5.18,8.19v5.9Z"/><path class="cls-4" d="M288,331.89l2.78-.27a3.41,3.41,0,0,0,1,2.05,3.12,3.12,0,0,0,2.06.65,3.22,3.22,0,0,0,2.08-.58,1.75,1.75,0,0,0,.69-1.36,1.28,1.28,0,0,0-.29-.86,2.5,2.5,0,0,0-1-.61c-.35-.1-1.11-.32-2.28-.6a7.87,7.87,0,0,1-3.23-1.4,3.74,3.74,0,0,1-1.28-2.83,3.55,3.55,0,0,1,.61-2,3.84,3.84,0,0,1,1.75-1.43,7,7,0,0,1,2.78-.48,5.91,5.91,0,0,1,4,1.15,4,4,0,0,1,1.41,3.11l-2.83.13a2.43,2.43,0,0,0-.79-1.57,2.94,2.94,0,0,0-1.81-.48,3.28,3.28,0,0,0-1.93.51,1,1,0,0,0-.47.87,1.08,1.08,0,0,0,.44.86,7.17,7.17,0,0,0,2.61.95,13.78,13.78,0,0,1,3.07,1,4,4,0,0,1,1.55,1.43,4.42,4.42,0,0,1-.11,4.53,4.2,4.2,0,0,1-1.9,1.56,8,8,0,0,1-3.06.51,6.07,6.07,0,0,1-4.1-1.23,5.39,5.39,0,0,1-1.73-3.6Z"/><path class="cls-4" d="M301.77,336.47V322.38h2.83v14.09Z"/><path class="cls-4" d="M320,336.47h-3.09l-1.24-3.2h-5.64l-1.15,3.2h-3l5.48-14.09h3Zm-5.25-5.57-1.94-5.23-1.9,5.23Z"/><path class="cls-4" d="M326.23,336.47V322.38h4.27L333,332l2.54-9.62h4.26v14.09h-2.63V325.38l-2.81,11.09h-2.74l-2.79-11.09v11.09Z"/><path class="cls-4" d="M342.66,336.47V322.38h10.45v2.39h-7.59v3.11h7.06v2.39h-7.06v3.83h7.87v2.37Z"/><path class="cls-4" d="M355.87,336.47v-14h2.85V334.1h7.08v2.37Z"/><path class="cls-4" d="M380.52,336.47h-3.09l-1.23-3.2h-5.63l-1.16,3.2h-3l5.49-14.09h3Zm-5.24-5.57-1.92-5.23-1.92,5.23Z"/><path class="cls-4" d="M382.09,336.47V322.38h2.84v6.25l5.72-6.25h3.85l-5.32,5.49,5.61,8.6H391.1l-3.87-6.61-2.3,2.36v4.25Z"/><path class="cls-4" d="M409,336.47h-3.1l-1.22-3.2H399l-1.17,3.2h-3l5.49-14.09h3Zm-5.24-5.57-2-5.23-1.91,5.23Z"/><rect class="cls-4" x="0.3" y="312.74" width="408.35" height="1.45"/></g></g></svg>